#!OML:ASF I:\Actors\actors\Patient Classification 1\Patient 1\Session 1\Subject1.ASF
:FULLY-SPECIFIED
:DEGREES
1483
root 0.231292 18.6081 8.55832 14.2937 5.87042 -7.37102
lowerback 3.04638 4.45775 8.14002
upperback -3.67467 6.53219 2.11534
thorax -4.89957 2.98162 -2.75457
lowerneck 8.23807 10.5549 13.047
upperneck 9.08166 15.2714 -5.26389
head 2.82241 7.95201 -3.43259
rclavicle 2.88238e-014 3.49861e-014
rhumerus -36.8227 8.70985 -96.8605
rradius 144.104
rwrist -52.2543
rhand 67.8026 -68.0145
rfingers 7.12502
rthumb 74.3716 -7.16956
lclavicle 2.88238e-014 3.49861e-014
lhumerus -48.0195 -20.4538 110.63
lradius 141.017
lwrist 58.0682
lhand 75.2942 -3.02585
lfingers 7.12502
lthumb 70.9473 -1165.47
rfemur 0 0 0
rtibia 0
rfoot 0 0
rtoes 0
lfemur -30.2433 -60.3801 9.72563
ltibia 23.0715
lfoot -62.8234 52.3955
ltoes -50.4703
1484
root 0.240536 18.6097 8.56456 14.1265 6.14213 -6.90995
lowerback 2.80938 4.43862 8.13715
upperback -3.63276 6.48956 2.37091
thorax -4.75511 2.97312 -2.46413
lowerneck 8.15869 10.7636 12.3849
upperneck 8.94841 15.4436 -4.54201
head 2.70567 8.0223 -3.12294
rclavicle -4.65156e-014 -1.59028e-015
rhumerus -36.5556 8.88609 -96.6618
rradius 144.067
rwrist -52.3655
rhand 67.7838 -68.4181
rfingers 7.12502
rthumb 74.3768 -7.63787
lclavicle -4.65156e-014 -1.59028e-015
lhumerus -47.6285 -20.2595 110.6
lradius 140.965
lwrist 58.2518
lhand 75.1321 -2.67308
lfingers 7.12502
lthumb 71.0455 -1164.75
rfemur 0 0 0
rtibia 0
rfoot 0 0
rtoes 0
lfemur -29.1489 -58.8492 8.01462
ltibia 22.9258
lfoot -59.3793 52.2105
ltoes -51.2208
1485
root 0.250024 18.6144 8.57105 13.9584 6.50143 -6.50856
lowerback 2.64296 4.41209 8.34249
upperback -3.67 6.46042 2.61547
thorax -4.71174 2.95706 -2.30856
lowerneck 8.35216 11.3463 10.0063
upperneck 8.2638 15.863 -1.30622
head 2.22604 8.1849 -2.05043
rclavicle -5.4467e-014 7.15625e-015
rhumerus -36.4182 9.02372 -96.5747
rradius 144.053
rwrist -52.502
rhand 67.768 -68.7539
rfingers 7.12502
rthumb 74.3811 -8.02808
lclavicle -5.4467e-014 7.15625e-015
lhumerus -47.4594 -20.1473 110.544
lradius 140.968
lwrist 58.3612
lhand 75.0947 -2.42793
lfingers 7.12502
lthumb 71.068 -1164.41
rfemur 0 0 0
rtibia 0
rfoot 0 0
rtoes 0
lfemur -28.076 -57.0464 6.37014
ltibia 22.7685
lfoot -55.375 51.8588
ltoes -52.0994
1486
root 0.259754 18.62 8.57411 13.81 6.90869 -6.17926
lowerback 2.74143 4.40055 8.85899
upperback -3.89524 6.50887 2.75894
thorax -4.96979 2.9475 -2.46043
lowerneck 8.31686 11.2441 10.4808
upperneck 8.43394 15.7823 -1.72267
head 2.37018 8.16266 -2.25045
rclavicle 2.65378e-014 2.38542e-015
rhumerus -36.5025 9.03056 -96.7002
rradius 144.044
rwrist -52.4646
rhand 67.8524 -68.8145
rfingers 7.12502
rthumb 74.358 -7.79871
lclavicle 2.65378e-014 2.38542e-015
lhumerus -47.6376 -20.179 110.477
lradius 140.989
lwrist 58.3722
lhand 75.1296 -2.58632
lfingers 7.12502
lthumb 71.047 -1164.65
rfemur 0 0 0
rtibia 0
rfoot 0 0
rtoes 0
lfemur -27.133 -55.0108 4.9008
ltibia 22.6177
lfoot -51.05 51.2786
ltoes -53.0791
1487
root 0.269591 18.6222 8.57625 13.656 7.34284 -5.89012
lowerback 2.7873 4.3688 9.38593
upperback -4.08367 6.52876 2.98955
thorax -5.17251 2.92702 -2.51929
lowerneck 8.08953 11.213 10.2179
upperneck 8.72446 15.6833 -1.36755
head 2.44135 8.11665 -2.07273
rclavicle -1.02374e-014 2.8625e-014
rhumerus -36.5125 9.1328 -96.7014
rradius 143.997
rwrist -52.5084
rhand 68.035 -69.0092
rfingers 7.12502
rthumb 74.3067 -7.36857
lclavicle -1.02374e-014 2.8625e-014
lhumerus -47.7209 -20.1788 110.461
lradius 140.984
lwrist 58.3803
lhand 75.0569 -2.50449
lfingers 7.12502
lthumb 71.0907 -1164.4
rfemur 0 0 0
rtibia 0
rfoot 0 0
rtoes 0
lfemur -26.3815 -53.1502 3.69376
ltibia 22.4854
lfoot -47.3582 50.3583
ltoes -53.8377
1488
root 0.280928 18.6225 8.58192 13.5336 7.74982 -5.60423
lowerback 2.59125 4.29232 9.78247
upperback -4.17322 6.44781 3.32693
thorax -5.16838 2.87643 -2.36629
lowerneck 7.85946 11.1475 10.2573
upperneck 8.98609 15.5901 -1.55985
head 2.58666 8.07761 -2.11829
rclavicle 2.69353e-014 1.11319e-014
rhumerus -36.3806 9.44189 -96.5955
rradius 143.9
rwrist -52.7204
rhand 68.0543 -69.3424
rfingers 7.12502
rthumb 74.3011 -7.63578
lclavicle 2.69353e-014 1.11319e-014
lhumerus -47.6307 -20.052 110.46
lradius 140.91
lwrist 58.3398
lhand 74.9894 -2.7202
lfingers 7.12502
lthumb 71.1312 -1164.46
rfemur 0 0 0
rtibia 0
rfoot 0 0
rtoes 0
lfemur -25.8927 -51.9154 2.81248
ltibia 22.3673
lfoot -44.9301 49.5112
ltoes -54.3048
1489
root 0.291988 18.6221 8.5881 13.4259 8.0675 -5.35363
lowerback 2.47181 4.16482 10.1691
upperback -4.33464 6.31333 3.62884
thorax -5.28852 2.79093 -2.25179
lowerneck 7.77111 11.2472 10.1482
upperneck 9.15136 15.688 -1.24136
head 2.62349 8.13085 -1.98414
rclavicle 1.00386e-014 -3.65764e-014
rhumerus -36.3806 9.83865 -96.6962
rradius 143.829
rwrist -52.8384
rhand 67.8684 -69.421
rfingers 7.12502
rthumb 74.3536 -8.35012
lclavicle 1.00386e-014 -3.65764e-014
lhumerus -47.7149 -19.7781 110.369
lradius 140.79
lwrist 58.223
lhand 75.2827 -3.66907
lfingers 7.12502
lthumb 70.9543 -1166.09
rfemur 0 0 0
rtibia 0
rfoot 0 0
rtoes 0
lfemur -25.5075 -51.032 2.09486
ltibia 22.2639
lfoot -42.9954 49.0019
ltoes -54.7726
1490
root 0.30179 18.62 8.59429 13.2722 8.29111 -5.13422
lowerback 2.39697 4.049 10.5275
upperback -4.4714 6.19665 3.92349
thorax -5.40872 2.71548 -2.13218
lowerneck 7.60183 11.3189 10.2512
upperneck 9.41447 15.7698 -1.19148
head 2.75396 8.18284 -1.95999
rclavicle -3.35946e-014 -2.8625e-014
rhumerus -36.3686 10.171 -96.7432
rradius 143.804
rwrist -52.8762
rhand 67.6384 -69.2938
rfingers 7.12502
rthumb 74.4157 -9.01516
lclavicle -3.35946e-014 -2.8625e-014
lhumerus -47.8326 -19.494 110.311
lradius 140.711
lwrist 58.2415
lhand 75.6192 -4.34659
lfingers 7.12502
lthumb 70.7481 -1167.53
rfemur 0 0 0
rtibia 0
rfoot 0 0
rtoes 0
lfemur -25.0662 -50.3292 1.38765
ltibia 22.1802
lfoot -41.5196 48.579
ltoes -55.1205
1491
root 0.311069 18.6178 8.60141 13.1229 8.48584 -4.87936
lowerback 1.90231 3.96184 10.6348
upperback -4.3351 6.0194 4.35496
thorax -5.038 2.65624 -1.68942
lowerneck 7.42172 11.3803 10.3613
upperneck 9.41497 15.861 -1.51341
head 2.83489 8.22778 -2.06443
rclavicle -4.19436e-014 -2.06736e-014
rhumerus -35.9444 10.5393 -96.3908
rradius 143.759
rwrist -52.9256
rhand 67.8501 -69.6528
rfingers 7.12502
rthumb 74.3586 -8.64466
lclavicle -4.19436e-014 -2.06736e-014
lhumerus -47.5546 -19.2143 110.428
lradius 140.664
lwrist 58.4229
lhand 75.3932 -4.21964
lfingers 7.12502
lthumb 70.887 -1166.89
rfemur 0 0 0
rtibia 0
rfoot 0 0
rtoes 0
lfemur -24.6614 -49.8229 0.704113
ltibia 22.1098
lfoot -40.6411 48.0932
ltoes -55.2479
1492
root 0.31745 18.6159 8.60705 12.999 8.66566 -4.60583
lowerback 1.57956 3.88955 10.7783
upperback -4.32853 5.89578 4.6841
thorax -4.88411 2.60515 -1.39446
lowerneck 7.51822 11.3656 10.554
upperneck 9.283 15.8785 -1.75708
head 2.81731 8.23803 -2.18336
rclavicle 5.91384e-014 2.22639e-014
rhumerus -35.7045 10.6599 -96.0895
rradius 143.756
rwrist -52.8506
rhand 68.6354 -70.4145
rfingers 7.12502
rthumb 74.1245 -6.74963
lclavicle 5.91384e-014 2.22639e-014
lhumerus -47.5798 -18.9364 110.604
lradius 140.674
lwrist 58.5568
lhand 75.1572 -3.97087
lfingers 7.12502
lthumb 71.0303 -1166.1
rfemur 0 0 0
rtibia 0
rfoot 0 0
rtoes 0
lfemur -24.3526 -49.4824 0.105155
ltibia 22.0592
lfoot -39.8059 47.7926
ltoes -55.4447
1493
root 0.321915 18.6159 8.60543 13.1108 8.60522 -4.41085
lowerback 1.14752 3.88411 10.9391
upperback -4.36641 5.84486 4.96564
thorax -4.70121 2.58853 -1.1541
lowerneck 7.39807 11.3831 10.5593
upperneck 9.30065 15.8948 -1.83083
head 2.85357 8.24582 -2.19842
rclavicle 1.09332e-014 -9.54166e-015
rhumerus -35.4125 10.7429 -95.8152
rradius 143.712
rwrist -52.733
rhand 68.319 -69.5354
rfingers 7.12502
rthumb 74.223 -6.93116
lclavicle 1.09332e-014 -9.54166e-015
lhumerus -47.5462 -18.5699 110.654
lradius 140.714
lwrist 58.6542
lhand 75.1651 -3.77411
lfingers 7.12502
lthumb 71.0256 -1165.92
rfemur 0 0 0
rtibia 0
rfoot 0 0
rtoes 0
lfemur -24.4134 -49.1898 -0.119825
ltibia 22.0057
lfoot -39.2096 47.7789
ltoes -55.6161
